<?xml version="1.0" encoding="utf-8"?>
<!-- Generator: Adobe Illustrator 22.0.1, SVG Export Plug-In . SVG Version: 6.00 Build 0)  -->
<svg version="1.1" id="Layer_1" xmlns="http://www.w3.org/2000/svg" xmlns:xlink="http://www.w3.org/1999/xlink" x="0px" y="0px"
	 viewBox="0 0 1000 175" style="enable-background:new 0 0 1000 175;" xml:space="preserve">
<style type="text/css">
	.st0{fill:#FFFFFF;}
	.st1{fill:none;}
	.st2{fill:#FF932C;}
</style>
<rect x="0.5" y="-0.1" class="st1" width="1000" height="175"/>
<g>
	<g>
		<path class="st0" d="M90,44.7l37.3,84.9h-9.6l-11.5-26.2H67.1l-11.5,26.2H46l37.3-84.9H90z M102.2,94.5L86.7,59L71,94.5H102.2z"/>
		<path class="st0" d="M197.3,44.7h8.9v51.5c0,4.6-0.9,8.9-2.6,12.9c-1.7,4-4.1,7.6-7.2,10.6c-3.1,3-6.6,5.4-10.6,7.2
			c-4,1.7-8.4,2.6-13,2.6c-4.4,0-8.5-0.8-12.3-2.3c-3.8-1.5-7.3-3.7-10.2-6.4c-3-2.7-5.4-5.9-7.3-9.6c-1.9-3.7-3.1-7.6-3.6-11.8
			h-0.1v-3.3V44.7h8.9v51.8c0,3.3,0.7,6.5,2,9.4c1.3,3,3.1,5.5,5.3,7.7c2.2,2.2,4.8,3.9,7.8,5.2c3,1.3,6.2,1.9,9.5,1.9
			c3.3,0,6.5-0.6,9.4-1.9c3-1.3,5.6-3,7.8-5.2c2.3-2.2,4-4.7,5.3-7.6c1.3-2.9,2-6,2-9.4v-0.5V44.7z"/>
		<path class="st0" d="M227.5,44.7H291v8.9h-27.3v76h-8.9v-76h-27.3V44.7z"/>
		<path class="st0" d="M342.7,44.9c5.8,0,11.2,1.1,16.3,3.3c5.1,2.2,9.6,5.2,13.4,9c3.8,3.8,6.8,8.3,9,13.4
			c2.2,5.1,3.3,10.6,3.3,16.4c0,5.9-1.1,11.3-3.3,16.4c-2.2,5.1-5.2,9.6-9,13.4c-3.8,3.8-8.3,6.8-13.4,9c-5.1,2.2-10.5,3.3-16.3,3.3
			c-5.9,0-11.3-1.1-16.4-3.3c-5.1-2.2-9.6-5.2-13.4-9c-3.8-3.8-6.8-8.3-9-13.4c-2.2-5.1-3.3-10.6-3.3-16.4c0-5.8,1.1-11.2,3.3-16.4
			c2.2-5.1,5.2-9.6,9-13.4c3.8-3.8,8.3-6.8,13.4-9C331.3,46,336.8,44.9,342.7,44.9z M342.7,120.5c4.6,0,8.9-0.9,12.9-2.7
			c4-1.8,7.6-4.2,10.6-7.2c3-3,5.4-6.5,7.2-10.6c1.7-4.1,2.6-8.4,2.6-13c0-4.6-0.9-8.9-2.6-12.9c-1.7-4-4.1-7.6-7.2-10.6
			c-3-3-6.6-5.4-10.6-7.2c-4-1.7-8.3-2.6-12.9-2.6c-4.6,0-8.9,0.9-12.9,2.6c-4,1.7-7.6,4.1-10.6,7.2c-3,3-5.4,6.6-7.2,10.6
			c-1.7,4-2.6,8.3-2.6,12.9c0,4.6,0.9,8.9,2.6,13c1.7,4.1,4.1,7.6,7.2,10.6c3,3,6.6,5.4,10.6,7.2
			C333.8,119.6,338.2,120.5,342.7,120.5z"/>
		<path class="st0" d="M487.8,44.7v84.9h-8.9V68.4L450,129.6h-6.5L415,68.5v61.1h-8.9V44.7h7.6l33.1,70.9l33.2-70.9H487.8z"/>
		<path class="st0" d="M631.5,91.6l42.9,38h-13.2l-40.4-36v36h-8.9V44.7h33.7c3.2,0,6.2,0.6,9,1.8c2.9,1.2,5.3,2.9,7.4,5
			c2.1,2.1,3.8,4.6,5,7.5c1.2,2.8,1.8,5.9,1.8,9c0,3.2-0.6,6.3-1.8,9.1c-1.2,2.8-2.9,5.3-5,7.5c-2.1,2.1-4.6,3.8-7.4,5
			c-2.9,1.2-5.9,1.8-9,1.8H631.5z M620.8,82.7h24.7c2,0,3.9-0.4,5.6-1.1c1.8-0.8,3.3-1.8,4.6-3.1c1.3-1.3,2.3-2.9,3.1-4.6
			c0.8-1.7,1.1-3.6,1.1-5.7c0-2-0.4-3.9-1.1-5.6c-0.8-1.8-1.8-3.3-3.1-4.6c-1.3-1.3-2.8-2.3-4.6-3.1c-1.8-0.8-3.7-1.1-5.6-1.1h-24.7
			V82.7z"/>
		<path class="st0" d="M686.3,44.7h63.5v8.9h-27.3v76h-8.9v-76h-27.3V44.7z"/>
		<path class="st0" d="M775.9,129.6c-1.3,0-2.5-0.5-3.4-1.4c-0.9-0.9-1.4-2.1-1.4-3.4c0-1.3,0.5-2.5,1.4-3.4c1-0.9,2.1-1.4,3.4-1.4
			c1.3,0,2.5,0.5,3.4,1.4c1,0.9,1.4,2.1,1.4,3.4c0,1.3-0.5,2.5-1.4,3.4C778.4,129.2,777.3,129.6,775.9,129.6z"/>
		<path class="st0" d="M850.2,46.6c2.8,1.2,5.3,2.9,7.4,5c2.1,2.1,3.8,4.6,5,7.5c1.2,2.8,1.8,5.9,1.8,9c0,3.2-0.6,6.3-1.8,9.1
			c-1.2,2.8-2.9,5.3-5,7.5c-2.1,2.1-4.6,3.8-7.4,5c-2.8,1.2-5.9,1.8-9.1,1.8h-25.9v38h-8.9V44.7H841
			C844.3,44.7,847.3,45.4,850.2,46.6z M846.6,81.6c1.8-0.8,3.3-1.8,4.6-3.1c1.3-1.3,2.3-2.9,3.1-4.6c0.8-1.7,1.1-3.6,1.1-5.7
			c0-2-0.4-3.9-1.1-5.6c-0.8-1.8-1.8-3.3-3.1-4.6c-1.3-1.3-2.8-2.3-4.6-3.1c-1.8-0.8-3.7-1.1-5.6-1.1h-25.9v29.1H841
			C843,82.7,844.9,82.4,846.6,81.6z"/>
		<path class="st0" d="M945.1,44.7h8.9v84.9h-8.9v-38h-50.5v38h-8.9V44.7h8.9v38h50.5V44.7z"/>
	</g>
	<g>
		<path class="st2" d="M514.2,130.3h3.4c1.6,0,2.9-1.4,2.9-3.2v-2.2c0-1.8,1.3-3.2,2.9-3.2H574c1.6,0,2.9,1.4,2.9,3.2v2.2
			c0,1.8,1.3,3.2,2.9,3.2h3.4c1.6,0,2.9-1.4,2.9-3.2v-2.2c0-1.8,1.3-3.2,2.9-3.2l0,0c1.6,0,2.9-1.4,2.9-3.2V93.1
			c0-1.8-1.3-3.2-2.9-3.2h-2.7c-1.4,0-2.6-1.1-2.8-2.6l-6.1-39.9c-0.2-1.5-1.4-2.6-2.8-2.6H523c-1.4,0-2.6,1.1-2.8,2.6l-6.1,39.9
			c-0.2,1.5-1.4,2.6-2.8,2.6h-2.7c-1.6,0-2.9,1.4-2.9,3.2v25.4c0,1.8,1.3,3.2,2.9,3.2l0,0c1.6,0,2.9,1.4,2.9,3.2v2.2
			C511.4,128.8,512.6,130.3,514.2,130.3z"/>
		<path class="st0" d="M574.5,83l-52-0.3c-2,0-3.6-1.9-3.2-3.9l4.8-26.3c0.3-1.6,1.6-2.7,3.2-2.7h42.5c1.6,0,2.9,1.2,3.2,2.7
			l4.7,26.6C578,81.2,576.5,83.1,574.5,83z"/>
		<circle class="st0" cx="519.2" cy="102.8" r="7.8"/>
		<circle class="st0" cx="577.7" cy="102.5" r="7.8"/>
		<path class="st0" d="M530.6,110.9c0,2.6,3.2,2,17.9,2c14.6-0.1,17.5,0.7,17.5-2c0-1.6,3.9-1.6,3.9,0c0,2.6-3.4,7.5-21.5,7.5
			c-16.9,0-21.8-4.9-21.8-7.5C526.7,109,530.6,109,530.6,110.9z"/>
	</g>
</g>
</svg>
